# xmcd
#
# Track frame offsets: 
#        150
#        35895
#        74250
#        123048
#        157483
#        195242
#        236272
#        288119
#        310036
#        330906
#
# Disc length: 4691 seconds
#
# Revision: 0
# Processed by: cddbd v1.5.2PL0 Copyright (c) Steve Scherf et al.
# Submitted via: ExactAudioCopy v0.95a5
#
DISCID=8012510a
DTITLE=Various Artist - Chojnacki Jan - Blues z Kapusta cd1
DYEAR=2016
DGENRE=Blues
TTITLE0=Wigwam-Help Me Checkin Up On My Baby
TTITLE1=Tadeusz Nalepa - Modlitwa
TTITLE2=The Blues Band -Twenty Nine Ways - Bo Diddley
TTITLE3=Louisiana Red and Nocna Zmiana Bluesa - LuilabyFor Majka Jurkows
TTITLE3=ka - Jo Ann Kelly, Alexis Korner
TTITLE4=Carlos Johnson- Key To The Highway
TTITLE5=The Blues Band i Dzem - Sweet Home Chicago
TTITLE6=Warren Haynes - Jessica
TTITLE7=Wojciech Waglewski - To nic zlego 
TTITLE8=John Mayall and The Bluesbreakers - Jenny
TTITLE9=Dariusz Kozakiewicz and Wojciech Waglewski - Layla
EXTD=
EXTT0=
EXTT1=
EXTT2=
EXTT3=
EXTT4=
EXTT5=
EXTT6=
EXTT7=
EXTT8=
EXTT9=
PLAYORDER=
